<?xml version="1.0" encoding="utf-8" ?><svg xmlns="http://www.w3.org/2000/svg" xmlns:xlink="http://www.w3.org/1999/xlink" width="935" height="917" viewBox="0 0 935 917"><defs><linearGradient id="gradient_0" gradientUnits="userSpaceOnUse" x1="89.305862" y1="52.953213" x2="71.071281" y2="72.814415"><stop offset="0" stop-color="#157894"/><stop offset="1" stop-color="#1565AA"/></linearGradient></defs><path fill="url(#gradient_0)" transform="scale(4.49519 4.4951)" d="M58.1408 47.9901C65.2081 48.0986 72.2908 48.562 79.3684 48.5363C81.4309 48.5288 83.8107 48.5318 85.8379 48.8112C86.883 50.0721 88.3999 52.467 89.3519 53.8789C91.7205 57.3576 94.0505 60.8623 96.3415 64.3926C98.4791 67.7154 101.023 71.9648 103.587 74.8564C101.459 76.6953 98.8338 78.6548 96.5908 80.4068C93.259 83.1598 89.8869 85.2867 86.2838 87.6365C85.0281 86.0434 83.4413 83.5196 82.2211 81.7569L74.2067 70.3045C68.9368 62.7907 63.3668 55.4883 58.1408 47.9901Z"/><defs><linearGradient id="gradient_1" gradientUnits="userSpaceOnUse" x1="112.82408" y1="108.76526" x2="102.28263" y2="79.970863"><stop offset="0" stop-color="#063779"/><stop offset="1" stop-color="#0D96BB"/></linearGradient></defs><path fill="url(#gradient_1)" transform="scale(4.49519 4.4951)" d="M127.706 73.2155C129.022 73.2466 131.16 69.5762 132.473 69.1649C132.705 70.1416 132.82 70.6257 133.207 71.5447C133.871 71.8427 135.273 71.4795 136.378 71.4707L119.559 98.323C118.198 100.484 113.656 108.207 112.352 109.784C108.294 110.186 104.128 109.863 100.065 109.98C91.2496 110.234 81.8193 109.441 73.0744 110.207C75.4384 108.76 80.7863 106.311 83.5295 105.019C89.0404 102.422 92.4479 100.47 97.636 97.1755C104.578 92.8167 111.19 87.9522 117.418 82.6216C120.235 80.1636 125.192 75.1952 127.706 73.2155Z"/><path fill="#48BB69" transform="scale(4.49519 4.4951)" d="M124.825 49.0762C132.742 44.7847 140.462 40.9912 148.543 37.0057C151.507 35.544 156.155 33.4718 158.913 31.9151C156.73 36.6927 154.786 43.3502 152.947 48.3682C152.235 50.3129 150.116 55.8048 149.683 57.5665C148.907 59.4288 148.221 61.3213 147.52 63.2132C146.524 62.7104 143.393 61.2574 142.712 60.7132L143.549 57.6497L143.193 56.2213C142.1 56.2291 141.864 56.3924 141.261 57.3532C140.558 57.3329 140.175 57.6277 139.655 58.0748C133.383 63.4703 127.781 69.662 121.664 75.2128C120.922 74.1742 120.594 73.6002 119.52 72.8864C122.341 70.4715 123.122 69.887 124.828 66.5917C124.31 66.346 121.997 64.8327 121.554 64.4944C121.333 63.6565 121.442 63.8542 121.972 62.8626C121.481 61.835 121.371 61.6235 120.402 61.036C122.203 58.6672 125.352 55.3207 127.398 53.0109C125.742 51.9669 124.1 50.9009 122.473 49.8132C123.076 49.5687 124.167 49.2751 124.825 49.0762Z"/><path fill="#74C667" transform="scale(4.49519 4.4951)" d="M124.825 49.0762C132.742 44.7847 140.462 40.9912 148.543 37.0057C151.507 35.544 156.155 33.4718 158.913 31.9151C156.73 36.6927 154.786 43.3502 152.947 48.3682C152.235 50.3129 150.116 55.8048 149.683 57.5665C148.907 59.4288 148.221 61.3213 147.52 63.2132C146.524 62.7104 143.393 61.2574 142.712 60.7132L143.549 57.6497L143.193 56.2213C144.315 54.9213 146.597 47.3955 147.113 45.5035C140.948 47.9952 131.382 51.8394 124.825 49.0762Z"/><path fill="#48BB69" transform="scale(4.49519 4.4951)" d="M143.549 57.6497C144.689 57.36 145.144 56.9143 146.072 56.344C146.65 55.9887 148.762 57.3405 149.683 57.5665C148.907 59.4288 148.221 61.3213 147.52 63.2132C146.524 62.7104 143.393 61.2574 142.712 60.7132L143.549 57.6497Z"/><path fill="#74C667" transform="scale(4.49519 4.4951)" d="M121.972 62.8626C125.115 61.0517 127.206 59.9108 130.566 58.4377C128.608 61.1233 126.695 63.8417 124.828 66.5917C124.31 66.346 121.997 64.8327 121.554 64.4944C121.333 63.6565 121.442 63.8542 121.972 62.8626Z"/><path fill="#1098AE" transform="scale(4.49519 4.4951)" d="M120.402 61.036C121.371 61.6235 121.481 61.835 121.972 62.8626C121.442 63.8542 121.333 63.6565 121.554 64.4944C121.997 64.8327 124.31 66.346 124.828 66.5917C123.122 69.887 122.341 70.4715 119.52 72.8864C120.594 73.6002 120.922 74.1742 121.664 75.2128C114.919 81.0882 107.792 86.5095 100.329 91.4409C98.2082 93.0949 95.2205 95.8655 92.5364 95.9212C91.934 95.6906 91.8376 95.4493 91.498 94.9202C88.6563 95.1917 74.6035 98.0029 73.0736 97.358C73.6991 96.8472 79.8796 94.154 81.113 93.5162C86.4756 90.7988 91.5916 87.6202 96.4034 84.0164C99.3894 81.6401 103.292 78.9422 105.965 76.3285C110.757 71.6444 116.294 66.2972 120.402 61.036Z"/><path fill="#6DC99F" transform="scale(4.49519 4.4951)" d="M120.402 61.036C121.371 61.6235 121.481 61.835 121.972 62.8626C121.442 63.8542 121.333 63.6565 121.554 64.4944C121.997 64.8327 124.31 66.346 124.828 66.5917C123.122 69.887 122.341 70.4715 119.52 72.8864C116.441 74.9924 100.438 86.3894 97.4641 85.8618C96.8358 85.4553 96.6686 84.734 96.4034 84.0164C99.3894 81.6401 103.292 78.9422 105.965 76.3285C110.757 71.6444 116.294 66.2972 120.402 61.036Z"/><path fill="#034787" transform="scale(4.49519 4.4951)" d="M91.498 94.9202C93.0558 92.4829 97.5097 90.8763 100.329 91.4409C98.2082 93.0949 95.2205 95.8655 92.5364 95.9212C91.934 95.6906 91.8376 95.4493 91.498 94.9202Z"/><path fill="#034787" fill-opacity="0.96078432" transform="scale(4.49519 4.4951)" d="M153.299 124.287C157.02 124.141 160.121 123.927 163.539 125.624C169.825 128.743 170.707 137.02 164.64 140.958C162.964 142.046 162.28 142.303 160.311 142.923C144.374 147.263 137.565 127.795 153.299 124.287ZM157.311 140.214C159.563 139.837 161.436 139.218 162.88 137.25C163.831 135.954 164.214 134.327 163.941 132.744C163.265 128.758 159.325 126.787 155.58 127.08C146.217 129.171 147.233 140.22 157.311 140.214Z"/><path fill="#034787" fill-opacity="0.94509804" transform="scale(4.49519 4.4951)" d="M73.5265 124.753C79.4399 124.537 85.6094 124.851 91.3987 124.492C91.3606 125.649 91.4326 126.46 91.5306 127.603C87.3198 127.425 82.3269 127.511 78.0607 127.503C78.0471 128.664 77.8389 131.387 78.2762 132.235L78.2575 133.096C77.8799 133.169 77.5047 133.254 77.1324 133.35C77.4208 133.845 77.4958 133.882 77.9978 134.164C78.0595 134.385 78.1463 134.775 78.2544 134.953C77.8736 135.526 77.9374 139.083 77.9159 140.022C82.1581 139.968 87.6275 140.109 91.7243 139.782L91.7777 143.025C85.69 142.969 79.6018 142.981 73.5143 143.059C73.5523 136.957 73.5564 130.855 73.5265 124.753Z"/><path fill="#034787" fill-opacity="0.89803922" transform="scale(4.49519 4.4951)" d="M129.829 124.711C132.574 124.541 137.269 124.035 139.332 125.812L139.225 126.656C137.412 127.978 133.34 127.544 131.051 127.463C131.445 130.665 131.201 139.169 131.281 142.955L126.722 143.059C126.739 141.262 127.041 128.223 126.467 127.616C126.147 127.215 126.221 126.758 126.216 126.214C127.064 124.845 128.076 125.169 129.829 124.711Z"/><path fill="#034787" fill-opacity="0.81176472" transform="scale(4.49519 4.4951)" d="M42.89 125.037L42.9881 124.725C44.1616 124.723 47.1139 124.37 47.4835 124.997C48.8976 127.399 53.8951 136.994 54.2839 139.067L53.8756 139.619C54.1386 141.282 57.1066 141.596 58.1407 141.101C57.0045 143.775 55.0031 143.1 52.4739 142.94C50.9868 140.52 46.2977 132.125 45.3664 129.81L45.7066 129.215C45.7176 127.24 45.1655 125.088 42.89 125.037Z"/><path fill="#034787" fill-opacity="0.68627453" transform="scale(4.49519 4.4951)" d="M62.2222 124.694C63.7058 124.71 65.4784 124.775 66.9369 124.715C64.9573 128.099 63.0621 131.533 61.2532 135.011C60.6392 136.199 58.7811 140.318 58.1407 141.101C57.1066 141.596 54.1386 141.282 53.8756 139.619L54.2839 139.067L54.9593 138.939C57.4241 134.48 59.6037 129.145 62.2222 124.694Z"/><path fill="#1098AE" transform="scale(4.49519 4.4951)" d="M141.261 57.3532C141.864 56.3924 142.1 56.2291 143.193 56.2213L143.549 57.6497L142.712 60.7132C140.841 64.3225 138.519 67.993 136.378 71.4707C135.273 71.4795 133.871 71.8427 133.207 71.5447C132.82 70.6257 132.705 70.1416 132.473 69.1649C131.16 69.5762 129.022 73.2466 127.706 73.2155C127.901 72.785 129.831 70.8328 130.267 70.3394C133.11 67.1242 139.377 61.1113 141.261 57.3532Z"/><path fill="#034787" fill-opacity="0.46666667" transform="scale(4.49519 4.4951)" d="M99.7505 126.379C100.111 125.569 100.174 125.351 100.905 124.881C101.88 124.738 102.853 124.892 103.834 124.996C104.527 125.862 104.238 137.966 104.242 140.031C103.284 139.512 103.97 138.756 102.839 136.74L102.875 137.049C101.945 136.017 101.832 134.807 101.618 133.491C101.439 131.456 101.275 129.612 101.711 127.613C101.891 126.787 101.87 126.816 101.501 126.309C100.858 126.214 100.392 126.302 99.7505 126.379Z"/><path fill="#034787" fill-opacity="0.98823529" transform="scale(4.49519 4.4951)" d="M78.2762 132.235C79.3543 132.114 89.164 132.133 89.7939 132.323C90.0467 133.202 90.0546 133.343 90.0249 134.258C89.6002 134.765 89.629 134.769 88.9236 134.819C85.4498 135.064 81.7218 134.967 78.2544 134.953C78.1463 134.775 78.0595 134.385 77.9978 134.164C77.4958 133.882 77.4208 133.845 77.1324 133.35C77.5047 133.254 77.8799 133.169 78.2575 133.096L78.2762 132.235Z"/><path fill="#034787" fill-opacity="0.96862745" transform="scale(4.49519 4.4951)" d="M105.043 140.137C108.189 139.715 113.249 140.08 116.759 139.805C116.817 140.76 116.905 141.814 116.893 142.762L113.891 142.7C111.09 141.85 107.989 143.305 105.631 142.031C105.132 141.762 105.138 140.795 105.043 140.137Z"/><defs><linearGradient id="gradient_2" gradientUnits="userSpaceOnUse" x1="99.918564" y1="132.6102" x2="102.12392" y2="132.86575"><stop offset="0" stop-color="#084889" stop-opacity="0.51372552"/><stop offset="1" stop-color="#034784" stop-opacity="0.58431375"/></linearGradient></defs><path fill="url(#gradient_2)" transform="scale(4.49519 4.4951)" d="M99.7505 126.379C100.392 126.302 100.858 126.214 101.501 126.309C101.87 126.816 101.891 126.787 101.711 127.613C101.275 129.612 101.439 131.456 101.618 133.491C101.334 136.072 101.03 140.131 104.617 140.349C102.412 141.845 101.155 139.675 99.6934 140.422C99.9303 136.387 99.8027 130.464 99.7505 126.379Z"/><path fill="#034787" fill-opacity="0.98431373" transform="scale(4.49519 4.4951)" d="M126.467 127.616C124.493 127.533 120.101 128.179 118.881 126.77C118.62 126.002 118.635 125.904 118.884 125.129C119.881 124.344 127.99 124.656 129.829 124.711C128.076 125.169 127.064 124.845 126.216 126.214C126.221 126.758 126.147 127.215 126.467 127.616Z"/><path fill="#034787" fill-opacity="0.78823531" transform="scale(4.49519 4.4951)" d="M104.617 140.349L105.043 140.137C105.138 140.795 105.132 141.762 105.631 142.031C107.989 143.305 111.09 141.85 113.891 142.7C109.114 142.7 104.663 142.96 100.039 143.001C99.5959 142.366 99.7009 141.242 99.6934 140.422C101.155 139.675 102.412 141.845 104.617 140.349Z"/><path fill="#034787" fill-opacity="0.57254905" transform="scale(4.49519 4.4951)" d="M101.618 133.491C101.832 134.807 101.945 136.017 102.875 137.049L102.839 136.74C103.97 138.756 103.284 139.512 104.242 140.031L104.617 140.349C101.03 140.131 101.334 136.072 101.618 133.491Z"/><path fill="#034787" fill-opacity="0.92156863" transform="scale(4.49519 4.4951)" d="M42.89 125.037C45.1655 125.088 45.7176 127.24 45.7066 129.215L45.3664 129.81C44.3328 128.236 43.6274 126.758 42.89 125.037Z"/><path fill="#2D2C2C" transform="scale(4.49519 4.4951)" d="M0 0L0.513801 0L0.515417 133.675L0.483057 174.78C0.479615 182.103 0.446233 189.423 0.594913 196.745C0.760456 204.897 5.44638 202.69 10.7936 204L0 204L0 0Z"/></svg>